<svg width="40" height="40" viewBox="0 0 40 40" fill="none" xmlns="http://www.w3.org/2000/svg">
<circle cx="20" cy="20" r="20" fill="#F50E30"/>
<path d="M7.04 33L12.48 7.24H25.52C27.9733 7.24 29.7333 7.89333 30.8 9.2C31.8667 10.48 32.1733 12.1467 31.72 14.2C31.4267 15.5867 30.92 16.7467 30.2 17.68C29.48 18.5867 28.6133 19.2933 27.6 19.8C28.72 20.1733 29.5333 20.8267 30.04 21.76C30.5467 22.6667 30.6267 23.9067 30.28 25.48C29.7467 27.96 28.6933 29.84 27.12 31.12C25.5733 32.3733 23.3867 33 20.56 33H7.04ZM15.64 17.92H22.28C23.5867 17.92 24.5733 17.64 25.24 17.08C25.9333 16.4933 26.3867 15.68 26.6 14.64C26.84 13.4933 26.7333 12.64 26.28 12.08C25.8267 11.52 24.8267 11.24 23.28 11.24H17.04L15.64 17.92ZM13.28 29.04H20.12C21.48 29.04 22.5333 28.76 23.28 28.2C24.0533 27.64 24.5867 26.6533 24.88 25.24C25.12 24.0933 24.9867 23.24 24.48 22.68C23.9733 22.12 22.9067 21.84 21.28 21.84H14.8L13.28 29.04Z" fill="white"/>
</svg>
