<svg width="24" height="22" viewBox="0 0 24 22" fill="none" xmlns="http://www.w3.org/2000/svg">
<path d="M16 9.89948C17.66 9.89948 18.99 8.69359 18.99 7.19974C18.99 5.70588 17.66 4.5 16 4.5C14.34 4.5 13 5.70588 13 7.19974C13 8.69359 14.34 9.89948 16 9.89948ZM8 9.89948C9.66 9.89948 10.99 8.69359 10.99 7.19974C10.99 5.70588 9.66 4.5 8 4.5C6.34 4.5 5 5.70588 5 7.19974C5 8.69359 6.34 9.89948 8 9.89948ZM8 11.6993C5.67 11.6993 1 12.7522 1 14.849V17.0988H15V14.849C15 12.7522 10.33 11.6993 8 11.6993ZM16 11.6993C15.71 11.6993 15.38 11.7173 15.03 11.7443C16.19 12.5002 17 13.5171 17 14.849V17.0988H23V14.849C23 12.7522 18.33 11.6993 16 11.6993Z" fill="#8E8E93"/>
</svg>
